<?xml version="1.0" encoding="UTF-8"?>
<svg xmlns="http://www.w3.org/2000/svg" width="1024" height="1024" viewBox="0 0 1024 1024">
  <defs>
    <linearGradient id="shieldFill" x1="0" y1="0" x2="1" y2="1">
      <stop offset="0" stop-color="#172736"/>
      <stop offset="0.5" stop-color="#0B1117"/>
      <stop offset="1" stop-color="#101820"/>
    </linearGradient>
    <linearGradient id="shieldEdge" x1="0" y1="0" x2="1" y2="0">
      <stop offset="0" stop-color="#7DD3FC"/>
      <stop offset="0.499" stop-color="#7DD3FC"/>
      <stop offset="0.501" stop-color="#F87171"/>
      <stop offset="1" stop-color="#F87171"/>
    </linearGradient>
    <filter id="shadow" x="-20%" y="-20%" width="140%" height="150%">
      <feDropShadow dx="0" dy="22" stdDeviation="24" flood-color="#000000" flood-opacity="0.38"/>
    </filter>
    <clipPath id="shieldClip">
      <path d="M512 64 C684 64 815 120 866 174 L866 413 C866 651 736 827 512 950 C288 827 158 651 158 413 L158 174 C209 120 340 64 512 64 Z"/>
    </clipPath>
  </defs>

  <g filter="url(#shadow)">
    <path
      d="M512 64 C684 64 815 120 866 174 L866 413 C866 651 736 827 512 950 C288 827 158 651 158 413 L158 174 C209 120 340 64 512 64 Z"
      fill="url(#shieldFill)"
      stroke="url(#shieldEdge)"
      stroke-width="34"
      stroke-linejoin="round"/>

    <g clip-path="url(#shieldClip)" opacity="0.16">
      <path d="M154 164 L512 64 L512 950 L154 704 Z" fill="#7DD3FC"/>
      <path d="M512 64 L870 164 L870 704 L512 950 Z" fill="#F87171"/>
    </g>

    <path
      d="M512 105 C660 105 774 151 823 195 L823 409 C823 616 715 768 512 883 C309 768 201 616 201 409 L201 195 C250 151 364 105 512 105 Z"
      fill="none"
      stroke="#E5EEF7"
      stroke-opacity="0.20"
      stroke-width="8"/>

    <!-- Canonical Friend or Foe badge mark, scaled exactly from the 24x24 source geometry. -->
    <g fill="#FFC107">
      <path d="M512 280 L392 472 L632 472 Z"/>
      <path d="M380 496 L260 688 L500 688 Z"/>
      <path d="M644 496 L524 688 L764 688 Z"/>
    </g>
  </g>
</svg>
